ply
format ascii 1.0
comment Created in Blender version 4.2.3 LTS
element vertex 399
property float x
property float y
property float z
property float nx
property float ny
property float nz
property uchar red
property uchar green
property uchar blue
property uchar alpha
element face 674
property list uchar uint vertex_indices
end_header
1.1237447 1 -0.9181212 0.57734096 0.57734025 0.5773697 254 254 254 255
1.1237445 1 -1.0495024 0 1 0 254 254 254 255
-1.1382072 1 -1.0495019 0 1 0 254 254 254 255
-1.1382072 1 -0.91812086 -0.5773534 0.5773537 0.57734376 254 254 254 255
-1.1382072 -1 -0.91812086 -0.5773369 -0.577347 0.5773669 254 254 254 255
-1.1382072 1 -1.0495019 -1 0 0 254 254 254 255
-1.1382072 -1 -1.0495019 -1 0 0 254 254 254 255
-1.1382072 -1 -1.0495019 -2.1080784e-07 0 -1 254 254 254 255
-1.1382072 1 -1.0495019 -2.1080785e-07 0 -1 254 254 254 255
1.1237445 1 -1.0495024 0.7071121 0 -0.7071015 254 254 254 255
1.1237445 -1 -1.0495024 0.7070878 0 -0.70712584 254 254 254 255
1.1237445 -1 -1.0495024 0 -1 0 254 254 254 255
1.1237447 -1 -0.9181212 0.5773574 -0.5773469 0.5773465 254 254 254 255
-1.1382072 -1 -1.0495019 0 -1 0 254 254 254 255
-1.0080713 1 -0.9181479 0.57736874 0.5773458 -0.5773363 254 0 7 255
-1.1394526 1 -0.9181479 0 1 0 254 0 7 255
-1.1394519 1 1.0160222 0 1 0 254 0 7 255
-1.0080708 1 1.0160222 0.5773471 0.577347 0.57735676 254 0 7 255
-1.0080708 -1 1.0160222 0.5773721 -0.5773394 0.57733935 254 0 7 255
-1.1394519 1 1.0160222 0 0 1 254 0 7 255
-1.1394519 -1 1.0160222 0 0 1 254 0 7 255
-1.1394519 -1 1.0160222 -1 0 3.6979978e-07 254 0 7 255
-1.1394519 1 1.0160222 -1 0 3.6979978e-07 254 0 7 255
-1.1394526 1 -0.9181479 -0.707101 0 -0.70711267 254 0 7 255
-1.1394526 -1 -0.9181479 -0.70712686 0 -0.70708674 254 0 7 255
-1.1394526 -1 -0.9181479 0 -1 0 254 0 7 255
-1.0080713 -1 -0.9181479 0.57734376 -0.5773534 -0.5773536 254 0 7 255
-1.1394519 -1 1.0160222 0 -1 0 254 0 7 255
1.123772 1 -0.9180368 0.5773719 0.5773394 -0.5773395 0 254 0 255
0.99239075 1 -0.9180368 0 1 0 0 254 0 255
0.992391 1 1.0161328 0 1 0 0 254 0 255
1.1237725 1 1.0161328 0.57734376 0.57735384 0.5773533 0 254 0 255
1.1237725 -1 1.0161328 0.5773687 -0.5773462 0.57733595 0 254 0 255
0.992391 1 1.0161328 0 0 1 0 254 0 255
0.992391 -1 1.0161328 0 0 1 0 254 0 255
0.992391 -1 1.0161328 -1 0 1.2326663e-07 0 254 0 255
0.992391 1 1.0161328 -1 0 1.2326663e-07 0 254 0 255
0.99239075 1 -0.9180368 -0.70710087 0 -0.70711267 0 254 0 255
0.99239075 -1 -0.9180368 -0.7071268 0 -0.7070868 0 254 0 255
0.99239075 -1 -0.9180368 0 -1 0 0 254 0 255
1.123772 -1 -0.9180368 0.5773469 -0.57734704 -0.5773568 0 254 0 255
0.992391 -1 1.0161328 0 -1 0 0 254 0 255
-1.0079615 -0.8667605 -0.9839764 -0.5773395 0.5773721 -0.57733923 254 254 254 255
-1.0079615 -0.99814165 -0.9839764 -1 0 2.2683862e-07 254 254 254 255
-1.007961 -0.99814165 1.0160236 -1 0 2.2683864e-07 254 254 254 255
-1.007961 -0.8667605 1.0160236 -0.57735336 0.5773438 0.5773536 254 254 254 255
0.9920387 -0.8667606 1.0160232 0.5773396 0.577372 0.57733923 254 254 254 255
-1.007961 -0.99814165 1.0160236 2.384186e-07 0 1 254 254 254 255
0.9920387 -0.998142 1.0160232 2.384186e-07 0 1 254 254 254 255
0.9920387 -0.998142 1.0160232 -1.7881396e-07 -1 4.263257e-14 254 254 254 255
-1.007961 -0.99814165 1.0160236 -1.7903547e-07 -1 4.2632574e-14 254 254 254 255
-1.0079615 -0.99814165 -0.9839764 -2.953416e-07 -0.7071008 -0.7071128 254 254 254 255
0.99203825 -0.998142 -0.9839769 -2.9518344e-07 -0.70712686 -0.70708674 254 254 254 255
0.99203825 -0.998142 -0.9839769 1 0 -2.2683822e-07 254 254 254 255
0.99203825 -0.8667606 -0.9839769 0.5773534 0.57734376 -0.57735366 254 254 254 255
0.9920387 -0.998142 1.0160232 1 0 -3.3552226e-07 254 254 254 255
-1.0079618 0.99392027 -0.9839764 -0.57733953 0.57737225 -0.5773391 254 254 254 255
-1.0079618 0.8625389 -0.9839764 -1 0 4.4894136e-07 254 254 254 255
-1.007961 0.8625389 1.0160238 -1 0 3.4025734e-07 254 254 254 255
-1.007961 0.99392027 1.0160238 -0.5773532 0.5773438 0.5773539 254 254 254 255
0.99203885 0.9939199 1.0160234 0.57733953 0.577372 0.57733923 254 254 254 255
-1.007961 0.8625389 1.0160238 1.7881389e-07 0 1 254 254 254 255
0.99203885 0.86253875 1.0160234 1.7881399e-07 0 1 254 254 254 255
0.99203885 0.86253875 1.0160234 0 -1 1.4210852e-14 254 254 254 255
-1.007961 0.8625389 1.0160238 -6.892364e-08 -1 1.7763565e-14 254 254 254 255
-1.0079618 0.8625389 -0.9839764 -3.0820797e-07 -0.7071008 -0.7071128 254 254 254 255
0.99203837 0.86253875 -0.983977 -2.5946613e-07 -0.7071268 -0.7070868 254 254 254 255
0.99203837 0.86253875 -0.983977 1 0 -2.2683844e-07 254 254 254 255
0.99203837 0.9939199 -0.983977 0.5773535 0.57734376 -0.57735366 254 254 254 255
0.99203885 0.86253875 1.0160234 1 0 -2.2683862e-07 254 254 254 255
0.26243424 -0.19934916 0.32466522 0.50841874 0.20928583 0.8352903 254 254 254 255
0.29746836 -0.26248887 0.30803555 0.61507326 -0.06573894 0.7857247 254 254 254 255
-0.29746848 -0.26248893 0.30803543 -0.6151935 -0.0656242 0.7856401 254 254 254 255
0.32535604 -0.3192996 0.268705 0.66414803 -0.17685746 0.7263807 254 254 254 255
-0.32535616 -0.31929967 0.2687049 -0.6642911 -0.17671959 0.7262834 254 254 254 255
0.20915742 -0.3435228 0.31467956 0.11934064 -0.43027875 0.89477265 254 254 254 255
-0.20915754 -0.34352282 0.3146795 -0.11934134 -0.43027917 0.8947724 254 254 254 255
0.2091574 -0.2818674 0.34481516 0.097760335 -0.25998902 0.9606502 254 254 254 255
-0.20915756 -0.28186744 0.3448151 -0.09776072 -0.25998947 0.96065 254 254 254 255
0.2116474 -0.20990427 0.3454591 0.16065882 0.10342291 0.9815765 254 254 254 255
0.16327073 -0.18937701 0.3424664 -0.22195174 0.23545921 0.946201 254 254 254 255
0.12084647 -0.24352562 0.33447337 -0.4746384 -0.048179816 0.87886125 254 254 254 255
-0.12084662 -0.24352562 0.3344733 0.47463974 -0.04853204 0.87884116 254 254 254 255
0.092958815 -0.29491827 0.3026965 -0.5538644 -0.19941594 0.80837345 254 254 254 255
-0.09295895 -0.2949183 0.3026965 0.55386394 -0.19941573 0.80837387 254 254 254 255
0.046479378 -0.20156518 0.24145636 -0.8097199 0.33632258 0.48087522 254 254 254 255
-0.046479505 -0.20156518 0.24145636 0.80971974 0.33632275 0.4808754 254 254 254 255
0.08366292 -0.17176574 0.28300157 -0.7123998 0.40583894 0.5725219 254 254 254 255
-0.08366307 -0.17176574 0.28300157 0.7126508 0.40590668 0.5721614 254 254 254 255
0.14236212 -0.15043049 0.3144781 -0.4188988 0.51822406 0.74563235 254 254 254 255
0.16204247 -0.10600564 0.28419337 -0.24645379 0.81575936 0.5232564 254 254 254 255
0.12084647 -0.100005865 0.23152986 -0.477434 0.8425403 0.2493648 254 254 254 255
-0.12084662 -0.100005865 0.2315298 0.47710925 0.84288585 0.24881807 254 254 254 255
0.09295882 -0.1098533 0.16995355 -0.53059167 0.8417265 0.09984514 254 254 254 255
-0.09295894 -0.10985333 0.16995355 0.5305916 0.84172654 0.099844985 254 254 254 255
0.20915742 -0.08292112 0.12775584 0.12575212 0.9900137 -0.063712835 254 254 254 255
-0.20915754 -0.08292115 0.12775578 -0.12575227 0.9900137 -0.0637131 254 254 254 255
0.2091574 -0.07791829 0.19852702 0.10191165 0.99194705 0.07520012 254 254 254 255
-0.20915756 -0.07791829 0.19852696 -0.10117525 0.9919036 0.07675131 254 254 254 255
0.21130797 -0.09616375 0.26419276 0.16146804 0.90445244 0.39483407 254 254 254 255
0.2624971 -0.11992369 0.26760104 0.5179203 0.7238031 0.455925 254 254 254 255
0.29746836 -0.11896908 0.20509204 0.6196132 0.75733304 0.20621909 254 254 254 255
-0.29746848 -0.11896914 0.20509192 -0.6200086 0.7572554 0.20531379 254 254 254 255
0.32535604 -0.13423464 0.13596207 0.6536142 0.7504622 0.097954154 254 254 254 255
-0.32535616 -0.1342347 0.13596195 -0.6538266 0.7502602 0.09808394 254 254 254 255
0.37681428 -0.23271452 0.19811277 0.8128085 0.3374517 0.47483554 254 254 254 255
-0.37675157 -0.232765 0.1981195 -0.8131713 0.33700123 0.47453424 254 254 254 255
-0.27981633 -0.16402714 0.29376656 -0.6547529 0.43761614 0.6162716 254 254 254 255
0.27965453 -0.16442822 0.29413962 0.65420455 0.43702003 0.61727625 254 254 254 255
-0.2624097 -0.119692914 0.2676093 -0.5154761 0.7256727 0.45572308 254 254 254 255
-0.21170363 -0.09664938 0.26430383 -0.16211785 0.9040139 0.39557138 254 254 254 255
-0.16145617 -0.10577685 0.28424513 0.24815756 0.817578 0.5195999 254 254 254 255
-0.14244662 -0.1507002 0.314832 0.418905 0.515535 0.74749064 254 254 254 255
-0.1632709 -0.18937701 0.34246635 0.2208029 0.23453765 0.94669855 254 254 254 255
0.20915739 -0.14196628 0.32454678 0.15837698 0.5648589 0.80984634 254 254 254 255
-0.20915757 -0.14196634 0.32454672 -0.1591763 0.5647172 0.80978864 254 254 254 255
-0.21164754 -0.20990431 0.345459 -0.16065857 0.10342285 0.9815766 254 254 254 255
-0.26243442 -0.19934921 0.32466516 -0.508698 0.209491 0.8350688 254 254 254 255
-8.206793e-08 -0.09179962 0.28284338 0.02289337 0.5332433 0.84565216 254 254 254 255
-8.457438e-08 -0.36052844 0.4584366 -0.17660597 0.98201025 -0.06683004 254 254 254 255
-5.8821936e-08 -0.1412149 0.1581287 0.045267325 0.99328846 -0.10643792 254 254 254 255
-5.4068224e-08 -0.072737515 0.08613153 -1.3820545e-07 0.92459273 0.380957 254 254 254 255
6.510017e-08 -0.30150306 -0.5677357 0.0037469803 0.3535679 -0.9354014 254 254 254 255
9.369936e-08 -0.5695596 -0.5985435 0.0044570453 -0.24049819 -0.9706394 254 254 254 255
8.6748955e-08 -0.7993731 -0.41654357 0.0027772146 -0.80487305 -0.5934406 254 254 254 255
3.3043154e-08 -0.85317814 -0.029032305 -0.00035151912 -0.96138024 0.27522364 254 254 254 255
-0.12549905 -0.44619986 0.34287047 -0.9029204 -0.27295083 0.33201313 254 254 254 255
0.1859177 -0.55994934 0.43559766 0.96720266 0.25348634 0.016238665 254 254 254 255
-0.18591782 -0.5599494 0.4355976 -0.9666672 0.25601894 -0.0030076785 254 254 254 255
-0.21936177 -0.7818099 0.57419646 -0.9515516 -0.042074963 0.30459684 254 254 254 255
0.21936163 -0.7818099 0.57419646 0.9511112 -0.03907219 0.3063673 254 254 254 255
0.19521357 -0.8216979 0.5890242 0.5627968 -0.5758243 0.59303147 254 254 254 255
-0.19296958 -0.8212744 0.59267557 -0.53803664 -0.5749996 0.61635387 254 254 254 255
0.2602848 -0.42997473 0.31376997 0.32936636 -0.785024 0.5246477 254 254 254 255
-0.26028493 -0.4299748 0.3137699 -0.36508465 -0.7878447 0.495998 254 254 254 255
0.3764834 -0.37816685 0.2823293 0.6031109 -0.5232579 0.60204524 254 254 254 255
-0.37648353 -0.3781669 0.28232917 -0.59715325 -0.5475444 0.5861767 254 254 254 255
0.492682 -0.32003123 0.17199035 0.89641476 -0.42176968 0.13620186 254 254 254 255
-0.49268213 -0.32003132 0.1719902 -0.91229904 -0.37854046 0.15626135 254 254 254 255
0.5112738 -0.1325934 0.14622484 0.86896926 0.49374864 -0.033239584 254 254 254 255
0.42296284 -0.09531939 0.14236887 0.442322 0.8377609 -0.32016852 254 254 254 255
-0.5073806 -0.13860016 0.14652066 -0.89042854 0.4551011 0.004468412 254 254 254 255
0.29282042 -0.016994536 0.13194795 0.6023495 0.72716254 -0.3292563 254 254 254 255
-0.29282054 -0.016994596 0.13194789 -0.5980446 0.73426175 -0.32125142 254 254 254 255
0.19056563 0.07479638 0.100428164 0.23401432 0.882135 -0.40874854 254 254 254 255
-0.19056578 0.07479638 0.100428104 -0.2312687 0.8796818 -0.41554165 254 254 254 255
0.09295881 0.06403929 0.12530383 -0.5896131 0.75555444 -0.2854715 254 254 254 255
-0.09295896 0.06403929 0.12530383 0.60506994 0.7463692 -0.27717024 254 254 254 255
0.008054336 -0.08058649 0.21923901 -0.14878234 0.9503787 -0.27321088 254 254 254 255
-0.037183627 -0.048197955 0.20008914 0.77647984 0.5956484 -0.20562583 254 254 254 255
0.085087575 -0.10846266 0.26173592 0.17251119 0.38001937 0.9087492 254 254 254 255
-0.06741319 -0.145382 0.27992362 -0.04040937 0.40620685 0.9128873 254 254 254 255
0.12084647 -0.24352562 0.33447337 0.028730584 0.4307238 0.90202636 254 254 254 255
-0.2383845 -0.30041176 0.33958504 -0.32522142 0.477531 0.8162078 254 254 254 255
0.23817734 -0.30083266 0.33970296 0.23962286 0.23732314 0.9414131 254 254 254 255
0.39855435 -0.28449118 0.263841 0.56337386 0.1276731 0.8162778 254 254 254 255
-0.36672366 -0.14168434 0.2033551 -0.21233998 0.38567123 0.89786935 254 254 254 255
0.351439 -0.13176088 0.20655859 0.17986415 0.3840556 0.9056214 254 254 254 255
-0.21478795 -0.06495336 0.2019872 -0.1569624 0.46563017 0.8709487 254 254 254 255
0.17911658 -0.04895205 0.19852121 0.20181182 0.38246825 0.9016596 254 254 254 255
-0.11576215 -0.06506573 0.22572704 -0.32892436 0.38254836 0.8634035 254 254 254 255
-0.0005932991 -0.6645729 0.628673 -0.042233903 -0.26610464 0.9630185 254 254 254 255
-0.05983196 -0.64643145 0.6167406 -0.05746745 0.30872482 0.9494138 254 254 254 255
-0.0567174 -0.70106316 0.64073706 0.40175635 0.4302127 0.808399 254 254 254 255
-7.97722e-08 -0.38055953 0.4384846 -1 -8.9336446e-08 -1.5099579e-07 254 254 254 255
-7.84584e-08 -0.35683072 0.4157445 -0.15277302 0.9250355 0.3478074 254 254 254 255
0.061772533 -0.33893085 0.42960495 -0.34364906 0.6175321 0.7075023 254 254 254 255
0.07436703 -0.39566687 0.44932076 0.61395067 0.030467516 0.7887562 254 254 254 255
-0.0705971 -0.41231662 0.4551103 -0.62615126 0.19633187 0.7545784 254 254 254 255
0.23704508 -0.33589002 0.34924453 0.35295892 0.011655219 0.93556625 254 254 254 255
-0.35159826 -0.33222133 0.30739492 -0.48841393 0.02882254 0.872136 254 254 254 255
-0.44155475 -0.13735902 0.19540264 -0.47186005 0.3501882 0.8091455 254 254 254 255
0.4175627 -0.106375694 0.206584 0.3731585 0.5697702 0.7321985 254 254 254 255
-0.31199932 -0.040265713 0.21034558 -0.30904475 0.5126145 0.8010729 254 254 254 255
0.18331107 0.051819302 0.19230276 0.25921044 0.6946488 0.6710239 254 254 254 255
-0.18591785 0.053361356 0.19016257 -0.2712763 0.72867835 0.62883794 254 254 254 255
0.120846465 0.047448933 0.20584342 -0.13079002 0.7142567 0.68755466 254 254 254 255
-0.12084663 0.047448933 0.20584336 0.16905044 0.6993481 0.69450283 254 254 254 255
0.060423188 -0.04590422 0.2670835 -0.117741644 0.5287625 0.84056365 254 254 254 255
-0.06042336 -0.04590422 0.2670835 0.025002701 0.5873301 0.8089613 254 254 254 255
0.074367024 -0.3135652 0.43619084 -0.035707742 0.40875518 0.9119453 254 254 254 255
-0.07436719 -0.3135652 0.43619084 0.06942152 0.35780856 0.9312109 254 254 254 255
0.10290954 -0.43645343 0.4521961 0.68515193 0.44995242 0.57280856 254 254 254 255
-0.12549457 -0.5149635 0.50628966 -0.5611662 0.5325653 0.6336141 254 254 254 255
0.15839797 -0.6973107 0.608317 0.5596013 0.34880692 0.75178474 254 254 254 255
-0.1587722 -0.6952677 0.60649616 -0.5710337 0.35195896 0.74165046 254 254 254 255
0.13701023 -0.7722293 0.63123435 0.32954755 -0.13026455 0.9351095 254 254 254 255
-0.13611943 -0.7680403 0.63257813 -0.32571045 -0.10448504 0.93967843 254 254 254 255
0.0102828825 -0.8170449 0.63548857 0.0060045808 -0.56766 0.82324123 254 254 254 255
-7.5114365e-08 -0.27160472 0.34317386 0.013065897 0.62089235 0.7837871 254 254 254 255
-7.767139e-08 -0.17874596 0.30516824 -0.0137798665 0.3497341 0.93674767 254 254 254 255
0.07569615 -0.1808038 0.30047062 -0.09113239 0.42357484 0.90126544 254 254 254 255
-0.11346741 -0.23990768 0.33285898 0.011365257 0.45923218 0.88824356 254 254 254 255
0.043219723 -0.43075565 0.47297826 0.38774082 0.11468573 0.91460603 254 254 254 255
-0.018438572 -0.44558778 0.48543856 -0.16788378 0.27495918 0.9466851 254 254 254 255
-0.07767565 -0.373845 0.47943 -0.79009163 0.20831458 0.5765069 254 254 254 255
-0.061860025 -0.3387715 0.42937234 0.22502716 0.54401624 0.8083373 254 254 254 255
-0.026647678 -0.33230826 0.43786445 0.1534493 0.98709244 -0.045848023 254 254 254 255
-8.796688e-08 -0.35724595 0.478962 -0.0013849528 0.7045078 0.70969486 254 254 254 255
0.030927131 -0.33200428 0.43814918 -0.10865127 0.99326485 -0.040247314 254 254 254 255
0.07763467 -0.3734124 0.47935614 0.7720898 0.22194298 0.59549886 254 254 254 255
-0.00010475592 -0.41949654 0.49827114 0.011921771 -0.18863997 0.98197395 254 254 254 255
0.12839863 -0.4453362 0.343888 0.9085152 -0.23590198 0.34489182 254 254 254 255
-0.09609814 -0.422528 0.44239238 -0.7606931 0.44925153 0.46852866 254 254 254 255
-0.018876309 -0.73266995 0.6471777 0.11714602 0.57165074 0.81209135 254 254 254 255
0.0483127 -0.71865225 0.64580476 -0.2980464 0.3950347 0.8689741 254 254 254 255
0.06016534 -0.64695776 0.61760634 0.088456266 0.35394797 0.9310728 254 254 254 255
0.048767503 -0.68839705 0.5933978 -0.5644664 -0.08820517 0.82072985 254 254 254 255
-0.055775408 -0.6785143 0.5892812 0.5458602 -0.2120369 0.81060296 254 254 254 255
0.03880518 -0.73921514 0.60922927 -0.46845368 0.80043626 0.3739692 254 254 254 255
-0.048824713 -0.7277183 0.60402983 0.57220244 0.687991 0.44637734 254 254 254 255
-0.11151667 -0.20669153 0.33198932 0.13146645 0.40120143 0.9065065 254 254 254 255
-0.19131823 -0.07118995 0.22563984 -0.1350297 0.8030137 0.5804619 254 254 254 255
0.19261386 -0.07201459 0.22601955 0.16923884 0.6414671 0.7482501 254 254 254 255
-0.24569286 -0.09742986 0.23725733 -0.35554567 0.7721346 0.5266835 254 254 254 255
0.34469068 -0.1425965 0.22495864 0.37076348 0.49489644 0.7858829 254 254 254 255
-0.3424136 -0.13986714 0.22378886 -0.3041753 0.55891985 0.7714183 254 254 254 255
0.32932097 -0.23530462 0.2905152 0.30176103 0.4733169 0.82759374 254 254 254 255
-0.34606367 -0.21615978 0.26629165 -0.20799106 0.49645376 0.8427772 254 254 254 255
-0.27412337 -0.24268317 0.30872256 -0.3981627 0.2614894 0.87925524 254 254 254 255
-0.22252211 -0.25267115 0.33000827 -0.15925086 0.23404737 0.95909387 254 254 254 255
0.11190858 -0.20691876 0.33218318 -0.10099118 0.3823767 0.9184709 254 254 254 255
0.114623986 -0.10272972 0.26327914 0.11404445 0.5858925 0.802324 254 254 254 255
-0.11375523 -0.10530695 0.2653313 -0.08318131 0.5267116 0.8459645 254 254 254 255
0.13943826 -0.10969514 0.24991968 0.4639794 -0.044001203 0.8847525 254 254 254 255
-0.1394384 -0.10969514 0.24991962 -0.49158728 -0.14093909 0.8593475 254 254 254 255
0.11619852 -0.1399098 0.271592 0.94015014 0.11890055 0.31934372 254 254 254 255
-0.11619868 -0.1399098 0.27159193 -0.92541564 0.13664271 0.35346106 254 254 254 255
0.1440862 -0.22300023 0.33119085 0.13354021 0.32498387 -0.93624383 254 254 254 255
-0.14408635 -0.22300023 0.3311908 -0.10841968 0.26344168 -0.9585633 254 254 254 255
0.22240472 -0.25185153 0.33023086 0.15059917 0.24459277 0.9578593 254 254 254 255
0.27422863 -0.2457403 0.30746207 -0.27198443 0.9050952 -0.32684448 254 254 254 255
0.32535604 -0.21125442 0.25984624 -0.63251185 0.5661068 0.5286321 254 254 254 255
-0.32535616 -0.21125448 0.25984612 0.0421653 0.7251326 0.68731713 254 254 254 255
0.33000398 -0.1772629 0.2354649 -0.6369166 0.4578198 0.6202728 254 254 254 255
-0.3300041 -0.17726296 0.23546478 0.402077 0.4234866 0.81178397 254 254 254 255
0.31606013 -0.14811599 0.22027847 -0.13638768 -0.12575099 0.98264194 254 254 254 255
-0.31606025 -0.14811605 0.22027835 0.109561644 -0.07187829 0.9913777 254 254 254 255
0.2448524 -0.09658761 0.23629326 0.33573067 0.7677261 0.5457854 254 254 254 255
0.16732591 -0.088101864 0.2401513 0.32559118 0.2604603 0.9089284 254 254 254 255
0.19986153 -0.08974314 0.2298886 0.038339503 0.22799926 0.9729062 254 254 254 255
-0.16872266 -0.0874102 0.240954 -0.21826032 0.46682942 0.8569906 254 254 254 255
0.11890479 -0.2034993 0.30968603 0.8136836 0.481173 0.32617745 254 254 254 255
-0.11890494 -0.20349929 0.30968598 -0.80398136 0.4902854 0.33650324 254 254 254 255
0.06507116 -0.112068 0.14294226 -0.47138125 0.8125523 -0.3428681 254 254 254 255
-0.06507128 -0.112068 0.14294226 0.4274417 0.825652 -0.36822885 254 254 254 255
0.11619854 -0.011161208 0.07628408 -0.47683993 0.0006147625 -0.87898993 254 254 254 255
-0.11619866 -0.011161268 0.07628402 0.47920528 0.0005047101 -0.8777028 254 254 254 255
0.19986154 -0.007957816 0.056826472 0.12171928 0.09138966 -0.98834836 254 254 254 255
-0.19986166 -0.007957876 0.056826413 -0.121719204 0.091389254 -0.98834836 254 254 254 255
0.28817248 -0.085709214 0.08399597 0.21814665 0.4708319 -0.8548271 254 254 254 255
-0.2881726 -0.085709274 0.08399591 -0.21316114 0.4668216 -0.8582773 254 254 254 255
-0.44146556 -0.22932798 0.04398877 -0.7721181 0.5220907 -0.36229166 254 254 254 255
0.43860757 -0.22623311 0.04277965 0.7542913 0.5343604 -0.3814493 254 254 254 255
0.46014643 -0.33685893 0.13258074 0.91466105 -0.3995043 0.06157472 254 254 254 255
-0.4601465 -0.33685902 0.1325806 -0.9147081 -0.40297377 0.030352674 254 254 254 255
-0.35789174 -0.40262735 0.20835462 -0.5468478 -0.7146778 0.43611148 254 254 254 255
0.31397972 -0.4128818 0.24231479 0.51995856 -0.7592394 0.39140624 254 254 254 255
-0.26028493 -0.4289861 0.26730096 -0.46938565 -0.80540144 0.36194694 254 254 254 255
-2.18163e-08 -0.01163584 -0.16361423 -4.5039183e-08 0.99949825 -0.031674236 254 254 254 255
1.7150033e-08 -0.09741548 -0.37092495 5.961145e-08 0.82553995 -0.56434375 254 254 254 255
6.8067024e-08 -0.8736047 -0.24889952 0.0007846625 -0.9827661 -0.18485226 254 254 254 255
-0.0002560906 -0.81042796 0.45298088 0.044473145 -0.764133 -0.6435239 254 254 254 255
0.0010810897 -0.68206865 0.30331475 -0.031101914 -0.9993866 0.016098142 254 254 254 255
0.5066259 -0.41393802 -0.04665088 0.9849805 -0.09267212 0.14568907 254 254 254 255
-0.5066259 -0.4139381 -0.046651036 -0.9822485 -0.12819535 0.13694459 254 254 254 255
0.51127386 -0.40761033 -0.12554918 0.99770486 -0.055325072 -0.039040253 254 254 254 255
-0.51127386 -0.40761042 -0.12554933 -0.99750656 -0.065784395 -0.025559263 254 254 254 255
0.46014652 -0.56950015 -0.2954277 0.65142256 -0.46369684 -0.600528 254 254 254 255
-0.4601464 -0.56950027 -0.29542786 -0.6707848 -0.46827528 -0.5751226 254 254 254 255
-0.27422863 -0.5785172 -0.48343912 -0.47302365 -0.35986182 -0.8042065 254 254 254 255
0.43690675 -0.54448605 0.058428206 0.72177976 -0.5116104 0.4661425 254 254 254 255
-0.43414053 -0.5471751 0.050509244 -0.7277526 -0.5103867 0.4581284 254 254 254 255
0.3532438 -0.6635256 -0.027786493 0.29787388 -0.7792525 0.55139536 254 254 254 255
-0.35324374 -0.66352564 -0.027786598 -0.29879144 -0.7763736 0.5549484 254 254 254 255
0.38113144 -0.6989804 -0.19683449 0.3373428 -0.9106446 -0.23859254 254 254 254 255
-0.38113138 -0.69898045 -0.19683461 -0.32553422 -0.9144495 -0.24043626 254 254 254 255
-0.19986153 -0.75003695 -0.331812 -0.44550073 -0.7693905 -0.45778525 254 254 254 255
0.13943829 -0.57529396 0.32648465 0.8816116 -0.024512561 -0.47133875 254 254 254 255
-0.10926055 -0.65076226 0.28281373 -0.6724605 -0.6998045 0.24097843 254 254 254 255
-0.19168834 -0.850659 0.51697344 -0.57247347 -0.77583885 -0.2652326 254 254 254 255
0.14873417 -0.6524719 0.37040272 0.76321435 -0.40010902 -0.5073625 254 254 254 255
-0.14161308 -0.6078362 0.33271036 -0.86449414 -0.21491972 -0.45437795 254 254 254 255
0.19227332 -0.8494476 0.517792 0.56444883 -0.77185726 -0.29263276 254 254 254 255
0.08366295 -0.78523463 0.4484705 0.14501333 -0.6846326 -0.7143174 254 254 254 255
-0.0042065685 -0.70438623 0.3611644 -0.049556114 -0.8103946 -0.58378494 254 254 254 255
-0.07436715 -0.68219227 0.36884055 -0.30331138 -0.7529506 -0.5840099 254 254 254 255
0.035664894 -0.86128867 0.5577568 0.04145883 -0.99832535 0.040346064 254 254 254 255
0.13014239 -0.53317535 0.3134338 0.98169035 -0.10861971 0.1564795 254 254 254 255
-0.13014248 -0.53317535 0.31343374 -0.98054236 -0.10060849 0.1685667 254 254 254 255
0.1203879 -0.45475525 0.31068048 0.8030852 -0.40282616 0.43907326 254 254 254 255
-0.11903892 -0.45424366 0.31129888 -0.7897912 -0.40610382 0.4596841 254 254 254 255
0.10380237 -0.6559251 0.27873033 0.6480736 -0.73933953 0.18269557 254 254 254 255
0.17662191 -0.78938717 -0.01186844 0.5077567 -0.7983654 0.32372215 254 254 254 255
-0.17662185 -0.7893872 -0.011868499 -0.50710094 -0.7988393 0.32358068 254 254 254 255
0.2045096 -0.80489004 -0.20094751 0.5343564 -0.8423362 -0.07023556 254 254 254 255
-0.20450948 -0.80489004 -0.20094757 -0.52227956 -0.85036254 -0.0640925 254 254 254 255
0.26958078 -0.25972053 -0.4775859 0.39528295 0.4091632 -0.822397 254 254 254 255
-0.26958072 -0.2597206 -0.477586 -0.39600864 0.41546905 -0.8188789 254 254 254 255
0.26958075 -0.121144265 -0.3481848 0.40898493 0.76240647 -0.5014656 254 254 254 255
-0.26958075 -0.121144295 -0.34818488 -0.4090939 0.76228493 -0.50156146 254 254 254 255
0.26958072 -0.053260088 -0.17379782 0.4442401 0.8958873 0.0060604657 254 254 254 255
-0.26958078 -0.053260118 -0.1737979 -0.44424024 0.8958873 0.006060481 254 254 254 255
0.27422866 -0.14416122 0.034402743 0.33929342 0.90370286 -0.26115385 254 254 254 255
-0.27422872 -0.14416128 0.034402654 -0.34296712 0.9027894 -0.259509 254 254 254 255
0.37648344 -0.22962448 -0.012975767 0.412987 0.9071516 -0.08073302 254 254 254 255
-0.3764835 -0.22962454 -0.012975886 -0.4241321 0.90292007 -0.06962408 254 254 254 255
0.3811314 -0.18732786 -0.20919327 0.6717517 0.73281235 -0.108331695 254 254 254 255
-0.3811314 -0.18732792 -0.2091934 -0.6719241 0.73272014 -0.10788508 254 254 254 255
0.4740903 -0.23092955 -0.126439 0.74375266 0.66826016 0.01613571 254 254 254 255
-0.4740903 -0.23092964 -0.12643915 -0.74131167 0.67094153 0.017161302 254 254 254 255
0.46830344 -0.29679343 -0.28052652 0.8505454 0.4062893 -0.33391845 254 254 254 255
-0.47182834 -0.29921743 -0.2781606 -0.85649157 0.39754218 -0.32921493 254 254 254 255
0.38113147 -0.3720369 -0.44278365 0.60313743 0.12485267 -0.7878053 254 254 254 255
-0.38113135 -0.37203696 -0.44278377 -0.6030398 0.14136493 -0.7850853 254 254 254 255
0.47409034 -0.4102205 -0.35247573 0.8665558 0.003087132 -0.49907082 254 254 254 255
-0.47409028 -0.41022062 -0.35247588 -0.8750924 0.025393892 -0.4832892 254 254 254 255
0.27350438 -0.59355366 -0.47737262 0.48987186 -0.3968518 -0.7762308 254 254 254 255
-0.36718753 -0.5907573 -0.38886005 -0.6196704 -0.50523114 -0.6006248 254 254 254 255
0.27456513 -0.73245233 -0.2795871 0.51083004 -0.7999668 -0.31481075 254 254 254 255
-0.28817248 -0.7245087 -0.2643233 -0.5292386 -0.8077978 -0.25955585 254 254 254 255
0.48803416 -0.45801428 -0.20379494 0.91270036 0.40191835 0.07375442 254 254 254 255
-0.4880341 -0.45801437 -0.20379509 -0.9145171 0.39874804 0.0682532 254 254 254 255
0.24169308 -0.577825 0.13954118 0.57049215 -0.58843994 0.5729548 254 254 254 255
-0.24169311 -0.57782507 0.13954109 -0.589078 -0.5666058 0.57614666 254 254 254 255
0.25563696 -0.71377134 -0.02606617 0.56312037 -0.7355695 0.37660727 254 254 254 255
-0.2556369 -0.7137714 -0.026066244 -0.5633091 -0.73483264 0.37776178 254 254 254 255
-0.54639065 -0.4219435 -0.2630019 0.17192656 0.9848076 -0.024398956 254 254 254 255
0.46014646 -0.65753406 -0.0034842193 0.037963834 -0.077511206 0.9962684 254 254 254 255
-0.46014646 -0.6575341 -0.0034843609 -0.055888135 -0.04031419 0.99762285 254 254 254 255
0.61817664 -0.70908487 -0.11522713 0.50288224 -0.41880783 0.75611484 254 254 254 255
-0.6181765 -0.709085 -0.11522731 -0.5008265 -0.4164931 0.7587533 254 254 254 255
0.7622629 -0.66876566 -0.21850675 0.65261835 -0.044283196 0.75639164 254 254 254 255
-0.76226276 -0.6687658 -0.21850699 -0.6526183 -0.044283744 0.75639176 254 254 254 255
0.8040944 -0.5376442 -0.30683726 0.77880424 0.4886287 0.3933269 254 254 254 255
-0.80409425 -0.5376443 -0.3068375 -0.77880424 0.48862886 0.39332664 254 254 254 255
0.73437524 -0.44700015 -0.37185422 0.37565088 0.89656717 -0.23463522 254 254 254 255
-0.7343751 -0.44700027 -0.37185445 -0.37299275 0.89777863 -0.23424335 254 254 254 255
0.55089074 -0.4202926 -0.26918203 -0.1716692 0.9832864 -0.060643137 254 254 254 255
-0.55495787 -0.44682127 -0.23195083 -0.46751273 0.48055288 0.7419575 254 254 254 255
0.7064876 -0.4701555 -0.33236554 0.32161283 0.44205573 0.8373482 254 254 254 255
-0.7064875 -0.47015563 -0.33236575 -0.32100466 0.43503734 0.8412482 254 254 254 255
0.752967 -0.5473335 -0.28844744 -0.20476338 0.4611362 0.8633803 254 254 254 255
-0.7529669 -0.5473336 -0.28844768 0.2094461 0.45905858 0.8633642 254 254 254 255
0.7204314 -0.649308 -0.21530339 -0.10168471 0.833156 0.5436095 254 254 254 255
-0.72043127 -0.64930815 -0.2153036 0.10804405 0.83082986 0.54593796 254 254 254 255
0.61352867 -0.6707431 -0.12556894 0.49749106 0.7644067 0.41010398 254 254 254 255
-0.61352855 -0.67074317 -0.12556912 -0.50883394 0.75329995 0.41668603 254 254 254 255
0.49268207 -0.6262516 -0.031642407 0.3549063 0.77605915 0.5213193 254 254 254 255
-0.50279146 -0.6211031 -0.04560791 -0.37341127 0.8342806 0.40563542 254 254 254 255
0.5576484 -0.44380006 -0.23564784 0.46298754 0.50399184 0.7291329 254 254 254 255
-0.56235564 -0.49581337 -0.23488206 -0.7125572 -0.101191595 0.6942784 254 254 254 255
0.53150326 -0.6429546 -0.11494919 0.0884692 0.9957348 -0.026179688 254 254 254 255
-0.6203069 -0.6835244 -0.19204941 -0.17120513 0.923104 0.34433675 254 254 254 255
-0.7085019 -0.6607508 -0.24793638 0.28967947 0.80055183 0.52459776 254 254 254 255
-0.7334582 -0.5848705 -0.29918942 0.42262867 0.55856085 0.71371907 254 254 254 255
-0.69628304 -0.5389423 -0.33455154 -0.0066313115 0.34622952 0.93812644 254 254 254 255
-0.611192 -0.52729994 -0.29605144 -0.5064386 0.23443091 0.8297965 254 254 254 255
0.4875422 -0.5004486 -0.17673141 0.8480288 -0.13118699 0.5134561 254 254 254 255
-0.46087974 -0.60032725 -0.16612487 -0.7431961 0.39341354 0.5411888 254 254 254 255
0.4628217 -0.6038102 -0.17336702 0.703108 0.4271943 0.5684578 254 254 254 255
0.49267632 -0.6163634 -0.17295198 0.36821058 0.72189754 0.58590525 254 254 254 255
0.501978 -0.6334691 -0.12942488 0.8797043 0.18449397 0.4382722 254 254 254 255
-0.501978 -0.63346916 -0.12942503 -0.8667595 0.4249721 0.26101092 254 254 254 255
0.50017405 -0.6539984 -0.14176723 0.4326026 0.8598343 0.27118286 254 254 254 255
-0.5028801 -0.65002096 -0.12418669 -0.4899771 0.8710988 0.03330759 254 254 254 255
0.41965145 -0.61740905 -0.06397601 0.7839194 0.3021782 0.542364 254 254 254 255
-0.42761084 -0.6171358 -0.06678097 -0.72872126 0.49387193 0.47440064 254 254 254 255
0.4276109 -0.59233916 -0.09600682 0.9611065 0.050156254 0.2715856 254 254 254 255
-0.42761084 -0.5923392 -0.09600695 -0.94569886 0.12709388 0.299167 254 254 254 255
-0.48872092 -0.4981076 -0.17921562 -0.8478265 -0.11005213 0.51872814 254 254 254 255
0.546749 -0.5071994 -0.22121935 0.70501477 -0.15970616 0.6909762 254 254 254 255
0.55435866 -0.5270491 -0.24937548 0.63893646 -0.11442408 0.76070184 254 254 254 255
-0.5005772 -0.65477467 -0.14689812 -0.43199542 0.89653075 0.098043755 254 254 254 255
-0.49215487 -0.6150865 -0.17433085 -0.4659858 0.6141581 0.63692003 254 254 254 255
0.6965369 -0.5389503 -0.33402333 0.016749525 0.3468966 0.9377538 254 254 254 255
0.7336389 -0.5842746 -0.29812807 -0.42105412 0.5650083 0.70956266 254 254 254 255
0.7096522 -0.66003656 -0.24849251 -0.29602632 0.79370785 0.53140974 254 254 254 255
0.6151898 -0.68287265 -0.18821126 0.23016104 0.9157171 0.32937533 254 254 254 255
-0.54801166 -0.5331959 -0.24340603 -0.65933746 0.009278914 0.7517899 254 254 254 255
0.58125854 -0.6137336 -0.20456757 0.38544804 0.550785 0.74031466 254 254 254 255
-0.600706 -0.5985265 -0.22284244 -0.3750204 0.51018345 0.7739978 254 254 254 255
0.6005129 -0.5243733 -0.28733504 0.51987964 0.21618325 0.82643217 254 254 254 255
0.65542036 -0.5675564 -0.26095852 0.3596769 0.598981 0.7154399 254 254 254 255
-0.6604778 -0.565442 -0.26757115 -0.34764153 0.62415415 0.69969773 254 254 254 255
0.60888076 -0.50266397 -0.3776876 -0.4134761 0.04557204 -0.9093739 254 254 254 255
-0.60888064 -0.5026641 -0.37768778 0.4169245 0.055696078 -0.9072332 254 254 254 255
0.7436711 -0.50922894 -0.4187384 0.28700766 0.049448445 -0.9566513 254 254 254 255
-0.743671 -0.50922906 -0.41873863 -0.2870073 0.049448207 -0.9566514 254 254 254 255
0.81339025 -0.57606506 -0.3364785 0.9252769 -0.13986175 -0.3525643 254 254 254 255
-0.81339014 -0.57606524 -0.33647874 -0.9252766 -0.13986196 -0.35256493 254 254 254 255
0.78085464 -0.7039832 -0.26760563 0.6366179 -0.7498515 -0.18011214 254 254 254 255
-0.7808545 -0.7039833 -0.26760587 -0.63661784 -0.7498516 -0.18011206 254 254 254 255
0.61817664 -0.75842106 -0.19995877 -0.02527236 -0.9795466 -0.199624 254 254 254 255
-0.6181765 -0.7584212 -0.19995895 0.025272414 -0.9795466 -0.19962397 254 254 254 255
0.4694424 -0.7204154 -0.107100025 -0.098866545 -0.9934285 0.05766578 254 254 254 255
-0.46944234 -0.7204155 -0.107100174 0.09886642 -0.99342847 0.057665836 254 254 254 255
0.5112739 -0.49388435 -0.30962545 -0.6546802 0.17552005 -0.73524594 254 254 254 255
-0.5112738 -0.49388444 -0.3096256 0.648234 0.18487325 -0.73865724 254 254 254 255
3 1 3 0
3 3 6 4
3 8 10 7
3 11 4 13
3 0 4 12
3 9 12 10
3 1 2 3
3 3 5 6
3 8 9 10
3 11 12 4
3 0 3 4
3 9 0 12
3 14 16 17
3 17 20 18
3 22 24 21
3 26 27 25
3 14 18 26
3 23 26 24
3 14 15 16
3 17 19 20
3 22 23 24
3 26 18 27
3 14 17 18
3 23 14 26
3 29 31 28
3 31 34 32
3 36 38 35
3 39 32 41
3 28 32 40
3 37 40 38
3 29 30 31
3 31 33 34
3 36 37 38
3 39 40 32
3 28 31 32
3 37 28 40
3 43 45 42
3 45 48 46
3 50 52 49
3 54 55 53
3 42 46 54
3 51 54 52
3 43 44 45
3 45 47 48
3 50 51 52
3 54 46 55
3 42 45 46
3 51 42 54
3 57 59 56
3 59 62 60
3 64 66 63
3 68 69 67
3 56 60 68
3 65 68 66
3 57 58 59
3 59 61 62
3 64 65 66
3 68 60 69
3 56 59 60
3 65 56 68
3 105 103 101
3 114 70 108
3 107 117 115
3 79 70 114
3 115 117 116
3 114 80 79
3 116 113 115
3 114 89 80
3 113 112 115
3 114 90 89
3 112 111 115
3 114 99 90
3 111 110 115
3 114 100 99
3 110 109 115
3 114 108 100
3 109 107 115
3 186 188 131
3 71 108 70
3 140 172 139
3 141 171 173
3 160 179 177
3 159 174 176
3 173 158 175
3 171 156 173
3 181 153 170
3 189 192 181
3 191 190 189
3 188 204 187
3 206 162 161
3 167 200 193
3 166 200 167
3 195 196 168
3 199 166 165
3 119 165 164
3 119 165 197
3 198 201 200
3 201 198 195
3 193 182 167
3 202 182 127
3 205 209 204
3 204 209 210
3 161 207 206
3 211 151 223
3 152 221 191
3 154 217 230
3 219 153 220
3 218 153 219
3 159 213 238
3 212 158 214
3 223 160 212
3 222 239 213
3 223 241 225
3 213 239 240
3 212 214 241
3 238 236 215
3 215 236 234
3 237 216 235
3 217 232 231
3 230 228 221
3 221 228 242
3 229 211 243
3 222 226 224
3 227 223 225
3 148 244 120
3 285 284 262
3 285 262 286
3 287 132 280
3 130 283 281
3 280 129 282
3 280 262 287
3 282 279 286
3 289 126 291
3 292 288 278
3 311 315 313
3 316 312 314
3 120 244 121
3 121 245 120
3 255 252 265
3 257 323 271
3 288 292 323
3 324 279 289
3 296 320 277
3 350 371 382
3 351 339 357
3 273 366 271
3 274 272 367
3 272 265 267
3 365 349 367
3 370 359 369
3 370 351 359
3 358 371 350
3 266 358 321
3 370 267 322
3 369 367 272
3 360 372 371
3 363 374 373
3 364 380 361
3 380 383 382
3 360 380 372
3 379 374 359
3 365 373 381
3 378 380 352
3 381 353 365
3 380 378 377
3 375 383 376
3 384 356 355
3 382 383 375
3 356 384 357
3 327 398 386
3 387 389 391
3 392 390 388
3 107 72 117
3 75 71 77
3 105 71 73
3 74 72 106
3 72 76 78
3 77 70 79
3 117 78 116
3 81 79 80
3 116 82 113
3 83 77 81
3 78 84 82
3 83 87 85
3 84 88 82
3 81 89 87
3 82 112 113
3 91 89 90
3 112 92 111
3 85 91 93
3 86 92 88
3 93 97 95
3 94 98 92
3 91 99 97
3 92 110 111
3 97 100 101
3 98 109 110
3 95 101 103
3 96 102 98
3 101 108 105
3 106 102 104
3 102 107 109
3 186 130 184
3 187 132 188
3 129 187 185
3 184 127 182
3 128 185 183
3 169 202 133
3 181 134 126
3 169 135 155
3 155 139 172
3 136 134 170
3 135 137 155
3 170 138 136
3 171 138 170
3 172 142 174
3 143 175 145
3 143 141 173
3 142 144 174
3 174 146 176
3 175 147 145
3 176 148 178
3 177 149 147
3 179 148 149
3 148 118 178
3 178 159 176
3 160 175 158
3 157 174 159
3 171 218 156
3 173 156 158
3 155 172 157
3 152 169 154
3 170 153 218
3 169 155 154
3 189 152 191
3 181 192 153
3 151 179 160
3 178 118 150
3 191 118 190
3 190 192 189
3 190 118 151
3 188 205 204
3 184 205 186
3 187 204 163
3 185 163 162
3 206 182 193
3 183 162 194
3 206 194 162
3 201 193 200
3 197 165 196
3 119 199 165
3 201 168 194
3 199 200 166
3 119 198 199
3 197 198 119
3 197 195 198
3 189 166 180
3 189 196 165
3 180 167 182
3 196 203 168
3 183 168 203
3 203 128 183
3 207 205 206
3 202 180 182
3 203 181 126
3 210 163 204
3 163 208 162
3 208 161 162
3 207 210 209
3 222 191 221
3 211 192 151
3 230 152 154
3 151 160 223
3 192 220 153
3 215 155 157
3 154 155 217
3 157 238 215
3 216 156 218
3 216 158 156
3 222 159 150
3 212 160 158
3 232 215 234
3 222 224 239
3 223 212 241
3 213 240 238
3 214 216 237
3 235 218 233
3 226 221 242
3 233 218 219
3 217 231 230
3 220 211 229
3 227 211 223
3 120 149 148
3 244 146 246
3 149 247 147
3 246 144 248
3 247 145 147
3 248 142 250
3 249 143 145
3 250 140 253
3 251 141 143
3 253 137 254
3 140 139 253
3 252 138 141
3 254 135 257
3 138 256 136
3 136 258 134
3 135 133 257
3 286 263 285
3 263 292 285
3 287 131 188
3 262 284 287
3 287 188 132
3 281 284 285
3 130 131 283
3 280 132 129
3 280 286 262
3 292 281 285
3 283 287 284
3 281 127 130
3 127 288 202
3 282 129 128
3 288 290 202
3 289 128 126
3 133 290 257
3 134 291 126
3 124 295 261
3 261 277 124
3 125 295 293
3 125 296 261
3 292 125 293
3 125 279 294
3 271 254 257
3 279 282 289
3 255 272 256
3 124 317 319
3 124 270 123
3 260 301 299
3 260 302 259
3 297 260 299
3 260 298 300
3 317 122 297
3 122 270 298
3 309 305 253
3 306 310 252
3 268 313 315
3 307 309 311
3 312 310 308
3 316 318 269
3 270 314 298
3 317 297 313
3 311 297 299
3 298 312 300
3 307 299 301
3 300 308 302
3 305 301 303
3 302 306 304
3 303 253 305
3 304 252 251
3 259 303 301
3 259 304 121
3 248 244 246
3 245 249 247
3 303 244 250
3 245 304 251
3 309 264 266
3 254 264 253
3 265 310 267
3 311 266 321
3 267 312 322
3 321 315 311
3 322 316 269
3 323 293 325
3 324 294 279
3 273 323 325
3 274 324 272
3 256 324 258
3 288 257 290
3 258 289 291
3 268 319 317
3 318 276 269
3 277 318 270
3 275 325 319
3 276 326 274
3 325 295 319
3 326 296 294
3 340 338 350
3 327 341 339
3 334 340 342
3 335 341 337
3 332 342 344
3 333 343 335
3 330 344 346
3 331 345 333
3 348 330 346
3 331 349 347
3 352 346 378
3 378 344 377
3 349 353 347
3 345 353 354
3 344 376 377
3 345 355 343
3 342 375 376
3 343 356 341
3 340 382 375
3 341 357 339
3 366 328 348
3 367 329 274
3 366 264 271
3 350 321 358
3 322 339 370
3 364 348 352
3 362 366 364
3 367 363 365
3 362 360 368
3 359 363 369
3 266 368 358
3 358 368 360
3 358 360 371
3 370 339 351
3 369 267 370
3 381 374 379
3 359 351 379
3 362 364 361
3 373 365 363
3 382 371 372
3 379 351 357
3 353 349 365
3 357 381 379
3 381 354 353
3 380 382 372
3 361 380 360
3 352 380 364
3 377 383 380
3 395 330 328
3 384 355 354
3 331 396 329
3 393 332 330
3 333 394 331
3 389 332 391
3 390 333 335
3 387 334 389
3 388 335 337
3 385 336 387
3 386 337 327
3 397 393 395
3 338 385 397
3 398 394 386
3 391 385 387
3 386 392 388
3 397 321 338
3 398 322 269
3 395 268 397
3 269 396 398
3 395 273 275
3 274 396 276
3 71 105 108
3 107 106 72
3 75 73 71
3 72 74 76
3 77 71 70
3 117 72 78
3 81 77 79
3 116 78 82
3 83 75 77
3 78 76 84
3 83 81 87
3 84 86 88
3 81 80 89
3 82 88 112
3 91 87 89
3 112 88 92
3 85 87 91
3 86 94 92
3 93 91 97
3 94 96 98
3 91 90 99
3 92 98 110
3 97 99 100
3 98 102 109
3 95 97 101
3 96 104 102
3 101 100 108
3 102 106 107
3 186 131 130
3 129 132 187
3 184 130 127
3 128 129 185
3 169 180 202
3 181 170 134
3 169 133 135
3 155 137 139
3 171 141 138
3 172 140 142
3 143 173 175
3 174 144 146
3 175 177 147
3 176 146 148
3 177 179 149
3 179 118 148
3 178 150 159
3 160 177 175
3 157 172 174
3 171 170 218
3 152 180 169
3 189 180 152
3 151 118 179
3 191 150 118
3 190 151 192
3 188 186 205
3 184 206 205
3 185 187 163
3 206 184 182
3 183 185 162
3 206 193 194
3 201 194 193
3 201 195 168
3 199 198 200
3 197 196 195
3 189 165 166
3 189 181 196
3 180 166 167
3 196 181 203
3 183 194 168
3 203 126 128
3 207 209 205
3 163 210 208
3 208 207 161
3 207 208 210
3 222 150 191
3 230 221 152
3 192 211 220
3 215 217 155
3 157 159 238
3 216 214 158
3 222 213 159
3 232 217 215
3 235 216 218
3 226 222 221
3 227 243 211
3 120 245 149
3 244 148 146
3 149 245 247
3 246 146 144
3 247 249 145
3 248 144 142
3 249 251 143
3 250 142 140
3 251 252 141
3 253 139 137
3 252 255 138
3 254 137 135
3 138 255 256
3 136 256 258
3 286 279 263
3 287 283 131
3 281 283 284
3 280 282 286
3 292 278 281
3 281 278 127
3 127 278 288
3 289 282 128
3 133 202 290
3 134 258 291
3 124 319 295
3 261 296 277
3 125 261 295
3 125 294 296
3 292 263 125
3 125 263 279
3 271 264 254
3 255 265 272
3 124 123 317
3 124 277 270
3 260 259 301
3 260 300 302
3 297 122 260
3 260 122 298
3 317 123 122
3 122 123 270
3 309 307 305
3 306 308 310
3 268 317 313
3 316 314 318
3 270 318 314
3 311 313 297
3 298 314 312
3 307 311 299
3 300 312 308
3 305 307 301
3 302 308 306
3 303 250 253
3 304 306 252
3 259 121 303
3 259 302 304
3 248 250 244
3 245 251 249
3 303 121 244
3 245 121 304
3 309 253 264
3 265 252 310
3 311 309 266
3 267 310 312
3 321 268 315
3 322 312 316
3 323 292 293
3 324 326 294
3 273 271 323
3 274 326 324
3 256 272 324
3 288 323 257
3 258 324 289
3 268 275 319
3 318 320 276
3 277 320 318
3 275 273 325
3 276 320 326
3 325 293 295
3 326 320 296
3 340 336 338
3 327 337 341
3 334 336 340
3 335 343 341
3 332 334 342
3 333 345 343
3 330 332 344
3 331 347 345
3 348 328 330
3 331 329 349
3 352 348 346
3 378 346 344
3 345 347 353
3 344 342 376
3 345 354 355
3 342 340 375
3 343 355 356
3 340 350 382
3 341 356 357
3 366 273 328
3 367 349 329
3 366 266 264
3 350 338 321
3 322 327 339
3 364 366 348
3 362 368 366
3 367 369 363
3 362 361 360
3 359 374 363
3 266 366 368
3 369 272 267
3 381 373 374
3 357 384 381
3 381 384 354
3 377 376 383
3 395 393 330
3 331 394 396
3 393 391 332
3 333 392 394
3 389 334 332
3 390 392 333
3 387 336 334
3 388 390 335
3 385 338 336
3 386 388 337
3 397 385 393
3 398 396 394
3 391 393 385
3 386 394 392
3 397 268 321
3 398 327 322
3 395 275 268
3 269 276 396
3 395 328 273
3 274 329 396
