ply
format ascii 1.0
comment Created in Blender version 4.2.3 LTS
element vertex 70
property float x
property float y
property float z
property float nx
property float ny
property float nz
property uchar red
property uchar green
property uchar blue
property uchar alpha
element face 60
property list uchar uint vertex_indices
end_header
1.0793012 1 -0.91828626 0.065405436 0.06540904 0.9957127 254 254 254 255
1.079301 1 -1.0496674 0 1 0 254 254 254 255
-0.92069876 1 -1.0496669 0 1 0 254 254 254 255
-0.92069876 1 -0.9182859 -0.06541258 0.065408915 0.9957122 254 254 254 255
-0.92069876 -1 -0.9182859 -0.06540517 -0.065405264 0.995713 254 254 254 255
-0.92069876 1 -1.0496669 -1 0 7.549791e-08 254 254 254 255
-0.92069876 -1 -1.0496669 -1 0 7.549791e-08 254 254 254 255
-0.92069876 -1 -1.0496669 -2.0079285e-07 0 -1 254 254 254 255
-0.92069876 1 -1.0496669 -2.0079285e-07 0 -1 254 254 254 255
1.079301 1 -1.0496674 0.06555284 0 -0.9978491 254 254 254 255
1.079301 -1 -1.0496674 0.06554545 0 -0.99784964 254 254 254 255
1.079301 -1 -1.0496674 -0 -1 0 254 254 254 255
1.0793012 -1 -0.91828626 0.065412864 -0.0654127 0.9957119 254 254 254 255
-0.92069876 -1 -1.0496669 -0 -1 0 254 254 254 255
-0.92259204 1 -0.9839766 0.99571264 0.0654091 -0.06540547 254 0 7 255
-1.0539733 1 -0.9839766 0 1 0 254 0 7 255
-1.0539726 1 1.0160238 0 1 0 254 0 7 255
-0.92259157 1 1.0160238 0.9957122 0.06540884 0.06541254 254 0 7 255
-0.92259157 -1 1.0160238 0.995713 -0.0654052 0.06540512 254 0 7 255
-1.0539726 1 1.0160238 0 0 1 254 0 7 255
-1.0539726 -1 1.0160238 0 0 1 254 0 7 255
-1.0539726 -1 1.0160238 -1 0 5.011796e-07 254 0 7 255
-1.0539726 1 1.0160238 -1 0 3.7588472e-07 254 0 7 255
-1.0539733 1 -0.9839766 -0.9978491 0 -0.06555281 254 0 7 255
-1.0539733 -1 -0.9839766 -0.9978496 0 -0.065545276 254 0 7 255
-1.0539733 -1 -0.9839766 0 -1 0 254 0 7 255
-0.92259204 -1 -0.9839766 0.995712 -0.06541277 -0.0654129 254 0 7 255
-1.0539726 -1 1.0160238 0 -1 0 254 0 7 255
1.2125762 1 -0.98397696 0.9957127 0.06540914 -0.06540553 0 254 0 255
1.0811949 1 -0.98397696 0 1 0 0 254 0 255
1.0811951 1 1.0160229 0 1 0 0 254 0 255
1.2125766 1 1.0160229 0.9957122 0.0654088 0.065412425 0 254 0 255
1.2125766 -1 1.0160229 0.99571306 -0.06540515 0.06540506 0 254 0 255
1.0811951 1 1.0160229 0 0 1 0 254 0 255
1.0811951 -1 1.0160229 0 0 1 0 254 0 255
1.0811951 -1 1.0160229 -1 0 2.505899e-07 0 254 0 255
1.0811951 1 1.0160229 -1 0 1.2529495e-07 0 254 0 255
1.0811949 1 -0.98397696 -0.9978491 0 -0.06555305 0 254 0 255
1.0811949 -1 -0.98397696 -0.99784964 0 -0.06554553 0 254 0 255
1.0811949 -1 -0.98397696 0 -1 0 0 254 0 255
1.2125762 -1 -0.98397696 0.99571204 -0.065412804 -0.0654129 0 254 0 255
1.0811951 -1 1.0160229 0 -1 0 0 254 0 255
-0.9206986 -0.8667605 -0.9839764 -0.065405264 0.995713 -0.065405205 254 254 254 255
-0.9206986 -0.99814165 -0.9839764 -1 -7.549791e-08 2.3841858e-07 254 254 254 255
-0.9206981 -0.99814165 1.0160236 -1 -7.549791e-08 2.3841858e-07 254 254 254 255
-0.9206981 -0.8667605 1.0160236 -0.0654126 0.9957122 0.06540889 254 254 254 255
1.0793017 -0.8667606 1.0160232 0.065405354 0.9957127 0.065409064 254 254 254 255
-0.9206981 -0.99814165 1.0160236 2.8884892e-07 2.180749e-14 1 254 254 254 255
1.0793017 -0.998142 1.0160232 3.392791e-07 2.561486e-14 1 254 254 254 255
1.0793017 -0.998142 1.0160232 -1.75092e-07 -1 5.9745286e-14 254 254 254 255
-0.9206981 -0.99814165 1.0160236 -1.75092e-07 -1 4.4808968e-14 254 254 254 255
-0.9206986 -0.99814165 -0.9839764 -1.9064521e-07 -0.9978491 -0.06555321 254 254 254 255
1.0793012 -0.998142 -0.9839769 -1.903427e-07 -0.9978496 -0.065545484 254 254 254 255
1.0793012 -0.998142 -0.9839769 1 7.549791e-08 -2.3841858e-07 254 254 254 255
1.0793012 -0.8667606 -0.9839769 0.06541269 0.99571204 -0.06541276 254 254 254 255
1.0793017 -0.998142 1.0160232 1 7.549791e-08 -2.3841858e-07 254 254 254 255
-0.9206987 0.99392027 -0.9839764 -0.06540516 0.99571306 -0.06540513 254 254 254 255
-0.9206987 0.8625389 -0.9839764 -1 -7.549791e-08 3.5762787e-07 254 254 254 255
-0.920698 0.8625389 1.0160238 -1 -7.549791e-08 3.5762787e-07 254 254 254 255
-0.920698 0.99392027 1.0160238 -0.06541248 0.9957122 0.06540882 254 254 254 255
1.0793018 0.9939199 1.0160234 0.065405466 0.9957127 0.065409124 254 254 254 255
-0.920698 0.8625389 1.0160238 1.1462225e-07 8.65374e-15 1 254 254 254 255
1.0793018 0.86253875 1.0160234 1.1003521e-07 8.307428e-15 1 254 254 254 255
1.0793018 0.86253875 1.0160234 -4.9797027e-08 -1 2.9872636e-14 254 254 254 255
-0.920698 0.8625389 1.0160238 -4.9797027e-08 -1 2.2404479e-14 254 254 254 255
-0.9206987 0.8625389 -0.9839764 -6.982765e-08 -0.9978491 -0.065553136 254 254 254 255
1.0793014 0.86253875 -0.983977 -6.922404e-08 -0.9978496 -0.065545574 254 254 254 255
1.0793014 0.86253875 -0.983977 1 7.549791e-08 -2.3841855e-07 254 254 254 255
1.0793014 0.9939199 -0.983977 0.06541281 0.995712 -0.06541284 254 254 254 255
1.0793018 0.86253875 1.0160234 1 7.549791e-08 -2.3841855e-07 254 254 254 255
3 0 2 3
3 3 6 4
3 8 10 7
3 12 13 11
3 0 4 12
3 9 12 10
3 0 1 2
3 3 5 6
3 8 9 10
3 12 4 13
3 0 3 4
3 9 0 12
3 14 16 17
3 17 20 18
3 22 24 21
3 26 27 25
3 14 18 26
3 23 26 24
3 14 15 16
3 17 19 20
3 22 23 24
3 26 18 27
3 14 17 18
3 23 14 26
3 28 30 31
3 31 34 32
3 36 38 35
3 40 41 39
3 28 32 40
3 37 40 38
3 28 29 30
3 31 33 34
3 36 37 38
3 40 32 41
3 28 31 32
3 37 28 40
3 43 45 42
3 46 47 48
3 50 52 49
3 54 55 53
3 42 46 54
3 51 54 52
3 43 44 45
3 46 45 47
3 50 51 52
3 54 46 55
3 42 45 46
3 51 42 54
3 57 59 56
3 60 61 62
3 64 66 63
3 68 69 67
3 56 60 68
3 65 68 66
3 57 58 59
3 60 59 61
3 64 65 66
3 68 60 69
3 56 59 60
3 65 56 68
