ply
format ascii 1.0
comment Created in Blender version 4.2.3 LTS
element vertex 70
property float x
property float y
property float z
property uchar red
property uchar green
property uchar blue
property uchar alpha
element face 30
property list uchar uint vertex_indices
end_header
1.2463313 2 -0.91828626 254 254 254 255
1.2463311 2 -1.0496674 254 254 254 255
-0.75366867 2 -1.0496669 254 254 254 255
-0.75366867 2 -0.9182859 254 254 254 255
-0.75366867 0 -0.9182859 254 254 254 255
-0.75366867 2 -1.0496669 254 254 254 255
-0.75366867 0 -1.0496669 254 254 254 255
-0.75366867 0 -1.0496669 254 254 254 255
-0.75366867 2 -1.0496669 254 254 254 255
1.2463311 2 -1.0496674 254 254 254 255
1.2463311 0 -1.0496674 254 254 254 255
1.2463311 0 -1.0496674 254 254 254 255
1.2463313 0 -0.91828626 254 254 254 255
-0.75366867 0 -1.0496669 254 254 254 255
-0.75556195 2 -0.9839766 254 0 7 255
-0.8869432 2 -0.9839766 254 0 7 255
-0.8869425 2 1.0160238 254 0 7 255
-0.7555615 2 1.0160238 254 0 7 255
-0.7555615 0 1.0160238 254 0 7 255
-0.8869425 2 1.0160238 254 0 7 255
-0.8869425 0 1.0160238 254 0 7 255
-0.8869425 0 1.0160238 254 0 7 255
-0.8869425 2 1.0160238 254 0 7 255
-0.8869432 2 -0.9839766 254 0 7 255
-0.8869432 0 -0.9839766 254 0 7 255
-0.8869432 0 -0.9839766 254 0 7 255
-0.75556195 0 -0.9839766 254 0 7 255
-0.8869425 0 1.0160238 254 0 7 255
1.3796062 2 -0.98397696 0 254 0 255
1.248225 2 -0.98397696 0 254 0 255
1.2482252 2 1.0160229 0 254 0 255
1.3796067 2 1.0160229 0 254 0 255
1.3796067 0 1.0160229 0 254 0 255
1.2482252 2 1.0160229 0 254 0 255
1.2482252 0 1.0160229 0 254 0 255
1.2482252 0 1.0160229 0 254 0 255
1.2482252 2 1.0160229 0 254 0 255
1.248225 2 -0.98397696 0 254 0 255
1.248225 0 -0.98397696 0 254 0 255
1.248225 0 -0.98397696 0 254 0 255
1.3796062 0 -0.98397696 0 254 0 255
1.2482252 0 1.0160229 0 254 0 255
-0.75366855 0.13323948 -0.9839764 254 254 254 255
-0.75366855 0.0018583536 -0.9839764 254 254 254 255
-0.75366807 0.0018583536 1.0160236 254 254 254 255
-0.75366807 0.13323948 1.0160236 254 254 254 255
1.2463318 0.13323939 1.0160232 254 254 254 255
-0.75366807 0.0018583536 1.0160236 254 254 254 255
1.2463318 0.001857996 1.0160232 254 254 254 255
1.2463318 0.001857996 1.0160232 254 254 254 255
-0.75366807 0.0018583536 1.0160236 254 254 254 255
-0.75366855 0.0018583536 -0.9839764 254 254 254 255
1.2463313 0.001857996 -0.9839769 254 254 254 255
1.2463313 0.001857996 -0.9839769 254 254 254 255
1.2463313 0.13323939 -0.9839769 254 254 254 255
1.2463318 0.001857996 1.0160232 254 254 254 255
-0.75366867 1.9939203 -0.9839764 254 254 254 255
-0.75366867 1.8625389 -0.9839764 254 254 254 255
-0.75366795 1.8625389 1.0160238 254 254 254 255
-0.75366795 1.9939203 1.0160238 254 254 254 255
1.2463319 1.9939198 1.0160234 254 254 254 255
-0.75366795 1.8625389 1.0160238 254 254 254 255
1.2463319 1.8625388 1.0160234 254 254 254 255
1.2463319 1.8625388 1.0160234 254 254 254 255
-0.75366795 1.8625389 1.0160238 254 254 254 255
-0.75366867 1.8625389 -0.9839764 254 254 254 255
1.2463315 1.8625388 -0.983977 254 254 254 255
1.2463315 1.8625388 -0.983977 254 254 254 255
1.2463315 1.9939198 -0.983977 254 254 254 255
1.2463319 1.8625388 1.0160234 254 254 254 255
4 0 1 2 3
4 4 3 5 6
4 7 8 9 10
4 11 12 4 13
4 12 0 3 4
4 10 9 0 12
4 14 15 16 17
4 18 17 19 20
4 21 22 23 24
4 25 26 18 27
4 26 14 17 18
4 24 23 14 26
4 28 29 30 31
4 32 31 33 34
4 35 36 37 38
4 39 40 32 41
4 40 28 31 32
4 38 37 28 40
4 42 43 44 45
4 46 45 47 48
4 49 50 51 52
4 53 54 46 55
4 54 42 45 46
4 52 51 42 54
4 56 57 58 59
4 60 59 61 62
4 63 64 65 66
4 67 68 60 69
4 68 56 59 60
4 66 65 56 68
