ply
format ascii 1.0
comment Created in Blender version 4.2.3 LTS
element vertex 70
property float x
property float y
property float z
property uchar red
property uchar green
property uchar blue
property uchar alpha
element face 60
property list uchar uint vertex_indices
end_header
1.0793012 1 -0.91828626 254 254 254 255
1.079301 1 -1.0496674 254 254 254 255
-0.92069876 1 -1.0496669 254 254 254 255
-0.92069876 1 -0.9182859 254 254 254 255
-0.92069876 -1 -0.9182859 254 254 254 255
-0.92069876 1 -1.0496669 254 254 254 255
-0.92069876 -1 -1.0496669 254 254 254 255
-0.92069876 -1 -1.0496669 254 254 254 255
-0.92069876 1 -1.0496669 254 254 254 255
1.079301 1 -1.0496674 254 254 254 255
1.079301 -1 -1.0496674 254 254 254 255
1.079301 -1 -1.0496674 254 254 254 255
1.0793012 -1 -0.91828626 254 254 254 255
-0.92069876 -1 -1.0496669 254 254 254 255
-0.92259204 1 -0.9839766 254 0 7 255
-1.0539733 1 -0.9839766 254 0 7 255
-1.0539726 1 1.0160238 254 0 7 255
-0.92259157 1 1.0160238 254 0 7 255
-0.92259157 -1 1.0160238 254 0 7 255
-1.0539726 1 1.0160238 254 0 7 255
-1.0539726 -1 1.0160238 254 0 7 255
-1.0539726 -1 1.0160238 254 0 7 255
-1.0539726 1 1.0160238 254 0 7 255
-1.0539733 1 -0.9839766 254 0 7 255
-1.0539733 -1 -0.9839766 254 0 7 255
-1.0539733 -1 -0.9839766 254 0 7 255
-0.92259204 -1 -0.9839766 254 0 7 255
-1.0539726 -1 1.0160238 254 0 7 255
1.2125762 1 -0.98397696 0 254 0 255
1.0811949 1 -0.98397696 0 254 0 255
1.0811951 1 1.0160229 0 254 0 255
1.2125766 1 1.0160229 0 254 0 255
1.2125766 -1 1.0160229 0 254 0 255
1.0811951 1 1.0160229 0 254 0 255
1.0811951 -1 1.0160229 0 254 0 255
1.0811951 -1 1.0160229 0 254 0 255
1.0811951 1 1.0160229 0 254 0 255
1.0811949 1 -0.98397696 0 254 0 255
1.0811949 -1 -0.98397696 0 254 0 255
1.0811949 -1 -0.98397696 0 254 0 255
1.2125762 -1 -0.98397696 0 254 0 255
1.0811951 -1 1.0160229 0 254 0 255
-0.9206986 -0.8667605 -0.9839764 254 254 254 255
-0.9206986 -0.99814165 -0.9839764 254 254 254 255
-0.9206981 -0.99814165 1.0160236 254 254 254 255
-0.9206981 -0.8667605 1.0160236 254 254 254 255
1.0793017 -0.8667606 1.0160232 254 254 254 255
-0.9206981 -0.99814165 1.0160236 254 254 254 255
1.0793017 -0.998142 1.0160232 254 254 254 255
1.0793017 -0.998142 1.0160232 254 254 254 255
-0.9206981 -0.99814165 1.0160236 254 254 254 255
-0.9206986 -0.99814165 -0.9839764 254 254 254 255
1.0793012 -0.998142 -0.9839769 254 254 254 255
1.0793012 -0.998142 -0.9839769 254 254 254 255
1.0793012 -0.8667606 -0.9839769 254 254 254 255
1.0793017 -0.998142 1.0160232 254 254 254 255
-0.9206987 0.99392027 -0.9839764 254 254 254 255
-0.9206987 0.8625389 -0.9839764 254 254 254 255
-0.920698 0.8625389 1.0160238 254 254 254 255
-0.920698 0.99392027 1.0160238 254 254 254 255
1.0793018 0.9939199 1.0160234 254 254 254 255
-0.920698 0.8625389 1.0160238 254 254 254 255
1.0793018 0.86253875 1.0160234 254 254 254 255
1.0793018 0.86253875 1.0160234 254 254 254 255
-0.920698 0.8625389 1.0160238 254 254 254 255
-0.9206987 0.8625389 -0.9839764 254 254 254 255
1.0793014 0.86253875 -0.983977 254 254 254 255
1.0793014 0.86253875 -0.983977 254 254 254 255
1.0793014 0.9939199 -0.983977 254 254 254 255
1.0793018 0.86253875 1.0160234 254 254 254 255
3 0 2 3
3 3 6 4
3 8 10 7
3 12 13 11
3 0 4 12
3 9 12 10
3 0 1 2
3 3 5 6
3 8 9 10
3 12 4 13
3 0 3 4
3 9 0 12
3 14 16 17
3 17 20 18
3 22 24 21
3 26 27 25
3 14 18 26
3 23 26 24
3 14 15 16
3 17 19 20
3 22 23 24
3 26 18 27
3 14 17 18
3 23 14 26
3 28 30 31
3 31 34 32
3 36 38 35
3 40 41 39
3 28 32 40
3 37 40 38
3 28 29 30
3 31 33 34
3 36 37 38
3 40 32 41
3 28 31 32
3 37 28 40
3 43 45 42
3 46 47 48
3 50 52 49
3 54 55 53
3 42 46 54
3 51 54 52
3 43 44 45
3 46 45 47
3 50 51 52
3 54 46 55
3 42 45 46
3 51 42 54
3 57 59 56
3 60 61 62
3 64 66 63
3 68 69 67
3 56 60 68
3 65 68 66
3 57 58 59
3 60 59 61
3 64 65 66
3 68 60 69
3 56 59 60
3 65 56 68
